<svg width="132" height="161" viewBox="0 0 132 161" fill="none" xmlns="http://www.w3.org/2000/svg">
<rect width="132" height="161" fill="#191919"/>
<rect x="20.9199" y="14.9395" width="87.2431" height="131.843" rx="43.6215" fill="#4DA9DB" stroke="black"/>
<rect x="0.0061391" y="0.703511" width="83.632" height="25.9798" transform="matrix(0.71677 0.697309 -0.704492 0.709712 69.7332 29.3251)" fill="#686868" stroke="black"/>
<mask id="path-4-inside-1_18_1151" fill="white">
<path d="M54.6962 43.7516L64.7354 33.638L68.3615 37.1657L58.3223 47.2792L54.6962 43.7516Z"/>
</mask>
<path d="M54.6962 43.7516L64.7354 33.638L68.3615 37.1657L58.3223 47.2792L54.6962 43.7516Z" fill="white"/>
<path d="M68.3615 37.1657L69.0783 37.863L69.7828 37.1533L69.066 36.456L68.3615 37.1657ZM58.3223 47.2792L57.6178 47.989L58.3346 48.6863L59.0391 47.9766L58.3223 47.2792ZM64.0309 34.3477L67.657 37.8754L69.066 36.456L65.4398 32.9283L64.0309 34.3477ZM67.6447 36.4684L57.6055 46.5819L59.0391 47.9766L69.0783 37.863L67.6447 36.4684ZM59.0268 46.5695L55.4007 43.0418L53.9917 44.4613L57.6178 47.989L59.0268 46.5695Z" fill="black" mask="url(#path-4-inside-1_18_1151)"/>
<rect x="0.710631" y="-0.00620127" width="1.58304" height="1.86048" transform="matrix(0.704492 -0.709712 0.71677 0.697309 52.7228 48.542)" fill="white" stroke="black"/>
<rect x="0.710631" y="-0.0062013" width="1.58304" height="1.86048" transform="matrix(0.704492 -0.709712 0.71677 0.697309 56.3692 52.1518)" fill="white" stroke="black"/>
<rect x="0.710631" y="-0.00620127" width="1.58304" height="1.86048" transform="matrix(0.704492 -0.709712 0.71677 0.697309 60.0156 55.8279)" fill="white" stroke="black"/>
<rect x="0.710631" y="-0.00620127" width="1.58304" height="1.86048" transform="matrix(0.704492 -0.709712 0.71677 0.697309 63.662 59.3656)" fill="white" stroke="black"/>
<rect x="0.710631" y="-0.00620127" width="1.58304" height="1.86048" transform="matrix(0.704492 -0.709712 0.71677 0.697309 67.3084 62.9754)" fill="white" stroke="black"/>
<rect x="0.710631" y="-0.00620127" width="1.58304" height="1.86048" transform="matrix(0.704492 -0.709712 0.716771 0.697309 70.9548 66.77)" fill="white" stroke="black"/>
<rect x="0.710631" y="-0.00620127" width="1.58304" height="1.86048" transform="matrix(0.704492 -0.709712 0.71677 0.697309 74.6012 70.3799)" fill="white" stroke="black"/>
<rect x="0.710631" y="-0.00620127" width="1.58304" height="1.86048" transform="matrix(0.704492 -0.709712 0.716771 0.697309 78.2476 73.9898)" fill="white" stroke="black"/>
<rect x="0.710631" y="-0.00620127" width="1.58304" height="1.86048" transform="matrix(0.704492 -0.709712 0.71677 0.697309 81.894 77.5996)" fill="white" stroke="black"/>
<rect x="0.710631" y="-0.00620127" width="1.58304" height="1.86048" transform="matrix(0.704492 -0.709712 0.71677 0.697309 85.5404 81.2095)" fill="white" stroke="black"/>
<rect x="0.710631" y="-0.00620127" width="1.58304" height="1.86048" transform="matrix(0.704492 -0.709712 0.71677 0.697309 89.1869 84.1635)" fill="white" stroke="black"/>
<rect x="0.710631" y="-0.00620127" width="1.58304" height="1.86048" transform="matrix(0.704492 -0.709712 0.716771 0.697309 92.8333 87.7013)" fill="white" stroke="black"/>
<rect x="0.710631" y="-0.00620127" width="1.58304" height="1.86048" transform="matrix(0.704492 -0.709712 0.716771 0.697309 96.4797 91.3111)" fill="white" stroke="black"/>
<rect x="0.710631" y="-0.00620127" width="1.58304" height="1.86048" transform="matrix(0.704492 -0.709712 0.71677 0.697309 100.126 95.1057)" fill="white" stroke="black"/>
<rect x="0.710631" y="-0.00620127" width="1.58304" height="1.86048" transform="matrix(0.704492 -0.709712 0.716771 0.697309 103.772 98.7156)" fill="white" stroke="black"/>
<rect x="0.710631" y="-0.00620127" width="1.58304" height="1.86048" transform="matrix(0.704492 -0.709712 0.716771 0.697309 108.148 102.325)" fill="white" stroke="black"/>
<rect x="0.710631" y="-0.0062013" width="1.58304" height="1.86048" transform="matrix(0.704492 -0.709712 0.71677 0.697309 67.3084 34.1025)" fill="white" stroke="black"/>
<rect x="0.710631" y="-0.00620127" width="1.58304" height="1.86048" transform="matrix(0.704492 -0.709712 0.716771 0.697309 70.9548 37.7124)" fill="white" stroke="black"/>
<rect x="0.710631" y="-0.00620127" width="1.58304" height="1.86048" transform="matrix(0.704492 -0.709712 0.71677 0.697309 74.6012 41.3884)" fill="white" stroke="black"/>
<rect x="0.710631" y="-0.00620127" width="1.58304" height="1.86048" transform="matrix(0.704492 -0.709712 0.716771 0.697309 78.2476 44.9261)" fill="white" stroke="black"/>
<rect x="0.710631" y="-0.00620127" width="1.58304" height="1.86048" transform="matrix(0.704492 -0.709712 0.71677 0.697309 81.894 48.536)" fill="white" stroke="black"/>
<rect x="0.710631" y="-0.00620127" width="1.58304" height="1.86048" transform="matrix(0.704492 -0.709712 0.71677 0.697309 85.5404 52.3306)" fill="white" stroke="black"/>
<rect x="0.710631" y="-0.00620127" width="1.58304" height="1.86048" transform="matrix(0.704492 -0.709712 0.71677 0.697309 89.1869 55.9404)" fill="white" stroke="black"/>
<rect x="0.710631" y="-0.00620127" width="1.58304" height="1.86048" transform="matrix(0.704492 -0.709712 0.716771 0.697309 92.8333 59.5503)" fill="white" stroke="black"/>
<rect x="0.710631" y="-0.00620127" width="1.58304" height="1.86048" transform="matrix(0.704492 -0.709712 0.716771 0.697309 96.4797 63.1602)" fill="white" stroke="black"/>
<rect x="0.710631" y="-0.00620127" width="1.58304" height="1.86048" transform="matrix(0.704492 -0.709712 0.716771 0.697309 100.126 66.77)" fill="white" stroke="black"/>
<rect x="0.710631" y="-0.00620127" width="1.58304" height="1.86048" transform="matrix(0.704492 -0.709712 0.716771 0.697309 103.772 69.724)" fill="white" stroke="black"/>
<rect x="0.710631" y="-0.00620127" width="1.58304" height="1.86048" transform="matrix(0.704492 -0.709712 0.71677 0.697309 107.419 73.2618)" fill="white" stroke="black"/>
<rect x="0.710631" y="-0.00620127" width="1.58304" height="1.86048" transform="matrix(0.704492 -0.709712 0.71677 0.697309 111.065 76.8717)" fill="white" stroke="black"/>
<rect x="0.710631" y="-0.00620127" width="1.58304" height="1.86048" transform="matrix(0.704492 -0.709712 0.71677 0.697309 114.712 80.6662)" fill="white" stroke="black"/>
<rect x="0.710631" y="-0.00620127" width="1.58304" height="1.86048" transform="matrix(0.704492 -0.709712 0.71677 0.697309 118.358 84.2761)" fill="white" stroke="black"/>
<rect x="0.710631" y="-0.00620127" width="1.58304" height="1.86048" transform="matrix(0.704492 -0.709712 0.71677 0.697309 122.734 87.886)" fill="white" stroke="black"/>
<rect x="0.710631" y="-0.00620127" width="13.2503" height="16.2491" transform="matrix(0.704492 -0.709712 0.71677 0.697309 61.4385 50.8574)" fill="white" stroke="black"/>
<rect x="0.710631" y="-0.00620127" width="13.2503" height="16.2491" transform="matrix(0.704492 -0.709712 0.71677 0.697309 76.7535 66.0189)" fill="white" stroke="black"/>
<rect x="0.710631" y="-0.0062013" width="13.2503" height="16.2491" transform="matrix(0.704492 -0.709712 0.71677 0.697309 92.7977 81.1803)" fill="white" stroke="black"/>
<mask id="path-41-inside-2_18_1151" fill="white">
<path d="M108.627 96.5613L118.666 86.4477L125.168 92.7732L115.129 102.887L108.627 96.5613Z"/>
</mask>
<path d="M108.627 96.5613L118.666 86.4477L125.168 92.7732L115.129 102.887L108.627 96.5613Z" fill="white"/>
<path d="M108.627 96.5613L107.91 95.864L107.205 96.5737L107.922 97.271L108.627 96.5613ZM118.666 86.4477L119.37 85.738L118.653 85.0407L117.949 85.7504L118.666 86.4477ZM109.343 97.2586L119.382 87.145L117.949 85.7504L107.91 95.864L109.343 97.2586ZM117.961 87.1574L124.463 93.4829L125.872 92.0635L119.37 85.738L117.961 87.1574ZM115.833 102.177L109.331 95.8516L107.922 97.271L114.424 103.596L115.833 102.177Z" fill="black" mask="url(#path-41-inside-2_18_1151)"/>
<rect x="0.0061391" y="0.703511" width="83.632" height="25.9798" transform="matrix(0.71677 0.697309 -0.704492 0.709712 21.6922 56.5138)" fill="#686868" stroke="black"/>
<mask id="path-44-inside-3_18_1151" fill="white">
<path d="M6.65517 70.9403L16.6944 60.8267L20.3205 64.3544L10.2813 74.468L6.65517 70.9403Z"/>
</mask>
<path d="M6.65517 70.9403L16.6944 60.8267L20.3205 64.3544L10.2813 74.468L6.65517 70.9403Z" fill="white"/>
<path d="M20.3205 64.3544L21.0373 65.0517L21.7418 64.342L21.025 63.6447L20.3205 64.3544ZM10.2813 74.468L9.57682 75.1777L10.2936 75.875L10.9981 75.1653L10.2813 74.468ZM15.9899 61.5364L19.616 65.0641L21.025 63.6447L17.3989 60.117L15.9899 61.5364ZM19.6037 63.6571L9.56455 73.7707L10.9981 75.1653L21.0373 65.0517L19.6037 63.6571ZM10.9858 73.7583L7.35967 70.2306L5.95068 71.65L9.57682 75.1777L10.9858 73.7583Z" fill="black" mask="url(#path-44-inside-3_18_1151)"/>
<rect x="0.710631" y="-0.00620127" width="1.58304" height="1.86048" transform="matrix(0.704492 -0.709712 0.71677 0.697309 4.68177 75.7307)" fill="white" stroke="black"/>
<rect x="0.710631" y="-0.0062013" width="1.58304" height="1.86048" transform="matrix(0.704492 -0.709712 0.71677 0.697309 8.32818 79.3406)" fill="white" stroke="black"/>
<rect x="0.710631" y="-0.00620127" width="1.58304" height="1.86048" transform="matrix(0.704492 -0.709712 0.71677 0.697309 11.9746 83.0166)" fill="white" stroke="black"/>
<rect x="0.710631" y="-0.00620127" width="1.58304" height="1.86048" transform="matrix(0.704492 -0.709712 0.71677 0.697309 15.621 86.5543)" fill="white" stroke="black"/>
<rect x="0.710631" y="-0.00620127" width="1.58304" height="1.86048" transform="matrix(0.704492 -0.709712 0.71677 0.697309 19.2674 90.1642)" fill="white" stroke="black"/>
<rect x="0.710631" y="-0.00620127" width="1.58304" height="1.86048" transform="matrix(0.704492 -0.709712 0.716771 0.697309 22.9138 93.9588)" fill="white" stroke="black"/>
<rect x="0.710631" y="-0.00620127" width="1.58304" height="1.86048" transform="matrix(0.704492 -0.709712 0.71677 0.697309 26.5602 97.5686)" fill="white" stroke="black"/>
<rect x="0.710631" y="-0.00620127" width="1.58304" height="1.86048" transform="matrix(0.704492 -0.709712 0.716771 0.697309 30.2066 101.178)" fill="white" stroke="black"/>
<rect x="0.710631" y="-0.00620127" width="1.58304" height="1.86048" transform="matrix(0.704492 -0.709712 0.71677 0.697309 33.853 104.788)" fill="white" stroke="black"/>
<rect x="0.710631" y="-0.00620127" width="1.58304" height="1.86048" transform="matrix(0.704492 -0.709712 0.71677 0.697309 37.4995 108.398)" fill="white" stroke="black"/>
<rect x="0.710631" y="-0.00620127" width="1.58304" height="1.86048" transform="matrix(0.704492 -0.709712 0.71677 0.697309 41.1459 111.352)" fill="white" stroke="black"/>
<rect x="0.710631" y="-0.00620127" width="1.58304" height="1.86048" transform="matrix(0.704492 -0.709712 0.716771 0.697309 44.7923 114.89)" fill="white" stroke="black"/>
<rect x="0.710631" y="-0.00620127" width="1.58304" height="1.86048" transform="matrix(0.704492 -0.709712 0.716771 0.697309 48.4387 118.5)" fill="white" stroke="black"/>
<rect x="0.710631" y="-0.00620127" width="1.58304" height="1.86048" transform="matrix(0.704492 -0.709712 0.71677 0.697309 52.0851 122.294)" fill="white" stroke="black"/>
<rect x="0.710631" y="-0.00620127" width="1.58304" height="1.86048" transform="matrix(0.704492 -0.709712 0.716771 0.697309 55.7315 125.904)" fill="white" stroke="black"/>
<rect x="0.710631" y="-0.00620127" width="1.58304" height="1.86048" transform="matrix(0.704492 -0.709712 0.716771 0.697309 60.1072 129.514)" fill="white" stroke="black"/>
<rect x="0.710631" y="-0.0062013" width="1.58304" height="1.86048" transform="matrix(0.704492 -0.709712 0.71677 0.697309 19.2674 61.2912)" fill="white" stroke="black"/>
<rect x="0.710631" y="-0.00620127" width="1.58304" height="1.86048" transform="matrix(0.704492 -0.709712 0.716771 0.697309 22.9138 64.9011)" fill="white" stroke="black"/>
<rect x="0.710631" y="-0.00620127" width="1.58304" height="1.86048" transform="matrix(0.704492 -0.709712 0.71677 0.697309 26.5602 68.5772)" fill="white" stroke="black"/>
<rect x="0.710631" y="-0.00620127" width="1.58304" height="1.86048" transform="matrix(0.704492 -0.709712 0.716771 0.697309 30.2066 72.1148)" fill="white" stroke="black"/>
<rect x="0.710631" y="-0.00620127" width="1.58304" height="1.86048" transform="matrix(0.704492 -0.709712 0.71677 0.697309 33.853 75.7247)" fill="white" stroke="black"/>
<rect x="0.710631" y="-0.00620127" width="1.58304" height="1.86048" transform="matrix(0.704492 -0.709712 0.71677 0.697309 37.4995 79.5193)" fill="white" stroke="black"/>
<rect x="0.710631" y="-0.00620127" width="1.58304" height="1.86048" transform="matrix(0.704492 -0.709712 0.71677 0.697309 41.1459 83.1292)" fill="white" stroke="black"/>
<rect x="0.710631" y="-0.00620127" width="1.58304" height="1.86048" transform="matrix(0.704492 -0.709712 0.716771 0.697309 44.7923 86.739)" fill="white" stroke="black"/>
<rect x="0.710631" y="-0.00620127" width="1.58304" height="1.86048" transform="matrix(0.704492 -0.709712 0.716771 0.697309 48.4387 90.3489)" fill="white" stroke="black"/>
<rect x="0.710631" y="-0.00620127" width="1.58304" height="1.86048" transform="matrix(0.704492 -0.709712 0.716771 0.697309 52.0851 93.9588)" fill="white" stroke="black"/>
<rect x="0.710631" y="-0.00620127" width="1.58304" height="1.86048" transform="matrix(0.704492 -0.709712 0.716771 0.697309 55.7315 96.9128)" fill="white" stroke="black"/>
<rect x="0.710631" y="-0.00620127" width="1.58304" height="1.86048" transform="matrix(0.704492 -0.709712 0.71677 0.697309 59.3779 100.451)" fill="white" stroke="black"/>
<rect x="0.710631" y="-0.00620127" width="1.58304" height="1.86048" transform="matrix(0.704492 -0.709712 0.71677 0.697309 63.0243 104.06)" fill="white" stroke="black"/>
<rect x="0.710631" y="-0.00620127" width="1.58304" height="1.86048" transform="matrix(0.704492 -0.709712 0.71677 0.697309 66.6707 107.855)" fill="white" stroke="black"/>
<rect x="0.710631" y="-0.00620127" width="1.58304" height="1.86048" transform="matrix(0.704492 -0.709712 0.71677 0.697309 70.3171 111.465)" fill="white" stroke="black"/>
<rect x="0.710631" y="-0.00620127" width="1.58304" height="1.86048" transform="matrix(0.704492 -0.709712 0.71677 0.697309 74.6928 115.075)" fill="white" stroke="black"/>
<rect x="0.710631" y="-0.00620127" width="13.2503" height="16.2491" transform="matrix(0.704492 -0.709712 0.71677 0.697309 13.3975 78.0462)" fill="white" stroke="black"/>
<rect x="0.710631" y="-0.00620127" width="13.2503" height="16.2491" transform="matrix(0.704492 -0.709712 0.71677 0.697309 28.7125 93.2076)" fill="white" stroke="black"/>
<rect x="0.710631" y="-0.0062013" width="13.2503" height="16.2491" transform="matrix(0.704492 -0.709712 0.71677 0.697309 44.7567 108.369)" fill="white" stroke="black"/>
<mask id="path-81-inside-4_18_1151" fill="white">
<path d="M60.5855 123.75L70.6247 113.636L77.1267 119.962L67.0875 130.075L60.5855 123.75Z"/>
</mask>
<path d="M60.5855 123.75L70.6247 113.636L77.1267 119.962L67.0875 130.075L60.5855 123.75Z" fill="white"/>
<path d="M60.5855 123.75L59.8688 123.053L59.1643 123.762L59.881 124.46L60.5855 123.75ZM70.6247 113.636L71.3292 112.927L70.6124 112.229L69.9079 112.939L70.6247 113.636ZM61.3023 124.447L71.3415 114.334L69.9079 112.939L59.8688 123.053L61.3023 124.447ZM69.9202 114.346L76.4222 120.672L77.8312 119.252L71.3292 112.927L69.9202 114.346ZM67.792 129.366L61.29 123.04L59.881 124.46L66.383 130.785L67.792 129.366Z" fill="black" mask="url(#path-81-inside-4_18_1151)"/>
<rect x="108.663" y="57.7578" width="21.1492" height="53.426" fill="#191919"/>
<rect y="47.6502" width="20.4199" height="53.426" fill="#191919"/>
<line x1="20.6492" y1="93.1345" x2="20.6492" y2="57.0359" stroke="black"/>
<line x1="108.163" y1="105.408" x2="108.163" y2="69.3094" stroke="black"/>
</svg>
